<svg width="238.808984375px" height="121.39999999999999px" xmlns="http://www.w3.org/2000/svg" viewBox="130.5955078125 14.300000000000004 238.808984375 121.39999999999999" style="background: rgba(0, 0, 0, 0);" preserveAspectRatio="xMidYMid"><defs><filter id="editing-hole" x="-100%" y="-100%" width="300%" height="300%"><feFlood flood-color="#000" result="black"></feFlood><feMorphology operator="dilate" radius="2" in="SourceGraphic" result="erode"></feMorphology><feGaussianBlur in="erode" stdDeviation="4" result="blur"></feGaussianBlur><feOffset in="blur" dx="2" dy="2" result="offset"></feOffset><feComposite operator="atop" in="offset" in2="black" result="merge"></feComposite><feComposite operator="in" in="merge" in2="SourceGraphic" result="inner-shadow"></feComposite></filter></defs><g filter="url(#editing-hole)"><g transform="translate(174.45118188858032, 104.1200008392334)"><path d="M-7.81 7.62L-7.81 7.62L-7.81 7.62Q-4.48 7.36-2.05 3.20L-2.05 3.20L-2.05 3.20Q-0.19 0 1.02-5.89L1.02-5.89L6.21-32.64L19.07-33.92L13.63-5.89L13.63-5.89Q11.52 4.80 8.26 8.32L8.26 8.32L8.26 8.32Q6.53 10.24 4.29 10.88L4.29 10.88L4.29 10.88Q2.05 11.52-0.51 11.52L-0.51 11.52L-0.51 11.52Q-5.89 11.52-7.81 7.62ZM7.23-41.54L7.23-41.54L7.23-41.54Q7.23-44.03 9.31-45.38L9.31-45.38L9.31-45.38Q11.39-46.72 14.40-46.72L14.40-46.72L14.40-46.72Q17.41-46.72 19.23-45.38L19.23-45.38L19.23-45.38Q21.06-44.03 21.06-41.54L21.06-41.54L21.06-41.54Q21.06-39.04 19.04-37.76L19.04-37.76L19.04-37.76Q17.02-36.48 14.02-36.48L14.02-36.48L14.02-36.48Q11.01-36.48 9.12-37.76L9.12-37.76L9.12-37.76Q7.23-39.04 7.23-41.54ZM35.33 1.28L35.33 1.28L35.33 1.28Q21.25 1.28 21.25-11.97L21.25-11.97L21.25-11.97Q21.25-21.38 26.43-27.46L26.43-27.46L26.43-27.46Q31.94-33.92 41.47-33.92L41.47-33.92L41.47-33.92Q48.38-33.92 51.90-30.72L51.90-30.72L51.90-30.72Q55.42-27.52 55.42-20.80L55.42-20.80L55.42-20.80Q55.42-10.56 49.92-4.61L49.92-4.61L49.92-4.61Q44.54 1.28 35.33 1.28ZM36.99-26.56L36.99-26.56L36.99-26.56Q36.22-24.83 35.62-22.24L35.62-22.24L35.62-22.24Q35.01-19.65 34.24-15.55L34.24-15.55L34.24-15.55Q33.47-11.46 33.47-6.40L33.47-6.40L33.47-6.40Q33.47-4.74 34.02-3.65L34.02-3.65L34.02-3.65Q34.56-2.56 36.03-2.56L36.03-2.56L36.03-2.56Q37.50-2.56 38.43-3.26L38.43-3.26L38.43-3.26Q39.36-3.97 40.06-5.63L40.06-5.63L40.06-5.63Q41.34-8.58 42.37-14.05L42.37-14.05L42.37-14.05Q43.39-19.52 43.49-21.89L43.49-21.89L43.49-21.89Q43.58-24.26 43.58-26.02L43.58-26.02L43.58-26.02Q43.58-27.78 43.07-28.93L43.07-28.93L43.07-28.93Q42.56-30.08 41.12-30.08L41.12-30.08L41.12-30.08Q39.68-30.08 38.72-29.18L38.72-29.18L38.72-29.18Q37.76-28.29 36.99-26.56ZM74.56-3.52L74.56-3.52L74.56-3.52Q72.58 1.28 66.24 1.28L66.24 1.28L66.24 1.28Q62.98 1.28 60.93-0.96L60.93-0.96L60.93-0.96Q59.20-2.94 59.20-4.93L59.20-4.93L59.20-4.93Q59.20-10.11 61.57-20.22L61.57-20.22L63.94-32.64L76.93-33.92L73.02-13.70L73.02-13.70Q71.94-8.96 71.94-7.30L71.94-7.30L71.94-7.30Q71.94-3.65 74.56-3.52ZM65.09-41.54L65.09-41.54L65.09-41.54Q65.09-44.03 67.17-45.38L67.17-45.38L67.17-45.38Q69.25-46.72 72.26-46.72L72.26-46.72L72.26-46.72Q75.26-46.72 77.09-45.38L77.09-45.38L77.09-45.38Q78.91-44.03 78.91-41.54L78.91-41.54L78.91-41.54Q78.91-39.04 76.90-37.76L76.90-37.76L76.90-37.76Q74.88-36.48 71.87-36.48L71.87-36.48L71.87-36.48Q68.86-36.48 66.98-37.76L66.98-37.76L66.98-37.76Q65.09-39.04 65.09-41.54ZM107.07 1.28L107.07 1.28L107.07 1.28Q99.33 1.28 99.33-4.74L99.33-4.74L99.33-4.74Q99.39-6.40 99.90-9.22L99.90-9.22L101.06-15.10L101.06-15.10Q102.78-23.42 102.78-25.28L102.78-25.28L102.78-25.28Q102.78-28.99 100.61-28.99L100.61-28.99L100.61-28.99Q96.96-28.99 95.04-19.46L95.04-19.46L91.26 0L78.40 1.28L85.06-32.70L95.55-33.92L94.53-27.65L94.53-27.65Q97.54-33.92 106.75-33.92L106.75-33.92L106.75-33.92Q111.23-33.92 113.12-32.03L113.12-32.03L113.12-32.03Q115.01-30.14 115.01-25.92L115.01-25.92L115.01-25.92Q115.01-21.95 112.96-12.67L112.96-12.67L112.96-12.67Q112-8.51 112-6.94L112-6.94L112-6.94Q112-5.38 112.86-4.48L112.86-4.48L112.86-4.48Q113.73-3.58 115.01-3.46L115.01-3.46L115.01-3.46Q114.37-1.28 112.16 0L112.16 0L112.16 0Q109.95 1.28 107.07 1.28ZM140.86-23.10L140.86-23.10L140.86-23.10Q149.31-20.93 149.31-12.67L149.31-12.67L149.31-12.67Q149.31-6.72 144.26-2.82L144.26-2.82L144.26-2.82Q138.88 1.28 130.05 1.28L130.05 1.28L130.05 1.28Q124.80 1.28 121.66-0.74L121.66-0.74L121.66-0.74Q118.53-2.75 118.53-6.08L118.53-6.08L118.53-6.08Q118.53-9.41 121.02-11.46L121.02-11.46L121.02-11.46Q122.30-9.09 124.58-8L124.58-8L124.58-8Q126.85-6.91 129.76-6.91L129.76-6.91L129.76-6.91Q132.67-6.91 134.53-8.45L134.53-8.45L134.53-8.45Q136.38-9.98 136.38-12.99L136.38-12.99L136.38-12.99Q136.38-18.69 128.58-18.69L128.58-18.69L129.66-24.45L129.66-24.45Q139.01-25.98 139.01-30.59L139.01-30.59L139.01-30.59Q139.01-32.45 137.73-33.47L137.73-33.47L137.73-33.47Q136.45-34.50 134.02-34.50L134.02-34.50L134.02-34.50Q129.73-34.50 125.95-30.53L125.95-30.53L125.95-30.53Q124.74-30.85 124.22-31.71L124.22-31.71L124.22-31.71Q123.71-32.58 123.71-34.37L123.71-34.37L123.71-34.37Q123.71-36.16 124.99-37.86L124.99-37.86L124.99-37.86Q126.27-39.55 128.51-40.83L128.51-40.83L128.51-40.83Q133.31-43.52 139.78-43.52L139.78-43.52L139.78-43.52Q144.70-43.52 147.84-40.96L147.84-40.96L147.84-40.96Q151.10-38.34 151.10-34.43L151.10-34.43L151.10-34.43Q151.10-30.91 148.29-27.84L148.29-27.84L148.29-27.84Q145.47-24.77 140.86-23.10Z" fill="#ccc"></path></g></g><style>text {
  font-size: 64px;
  font-family: Arial Black;
  dominant-baseline: central;
  text-anchor: middle;
}</style></svg>